<svg xmlns="http://www.w3.org/2000/svg" viewBox="0 0 240 200" fill="none" stroke="#3E5E66" stroke-width="2.5" stroke-linecap="round" stroke-linejoin="round"><circle cx="120" cy="100" r="65" fill="#D9E3E8"/><circle cx="120" cy="100" r="50"/><circle cx="140.0" cy="100.0" r="2"/><circle cx="138.5" cy="107.7" r="2"/><circle cx="134.1" cy="114.1" r="2"/><circle cx="127.7" cy="118.5" r="2"/><circle cx="120.0" cy="120.0" r="2"/><circle cx="112.3" cy="118.5" r="2"/><circle cx="105.9" cy="114.1" r="2"/><circle cx="101.5" cy="107.7" r="2"/><circle cx="100.0" cy="100.0" r="2"/><circle cx="101.5" cy="92.3" r="2"/><circle cx="105.9" cy="85.9" r="2"/><circle cx="112.3" cy="81.5" r="2"/><circle cx="120.0" cy="80.0" r="2"/><circle cx="127.7" cy="81.5" r="2"/><circle cx="134.1" cy="85.9" r="2"/><circle cx="138.5" cy="92.3" r="2"/><circle cx="155.0" cy="100.0" r="2"/><circle cx="152.3" cy="113.4" r="2"/><circle cx="144.7" cy="124.7" r="2"/><circle cx="133.4" cy="132.3" r="2"/><circle cx="120.0" cy="135.0" r="2"/><circle cx="106.6" cy="132.3" r="2"/><circle cx="95.3" cy="124.7" r="2"/><circle cx="87.7" cy="113.4" r="2"/><circle cx="85.0" cy="100.0" r="2"/><circle cx="87.7" cy="86.6" r="2"/><circle cx="95.3" cy="75.3" r="2"/><circle cx="106.6" cy="67.7" r="2"/><circle cx="120.0" cy="65.0" r="2"/><circle cx="133.4" cy="67.7" r="2"/><circle cx="144.7" cy="75.3" r="2"/><circle cx="152.3" cy="86.6" r="2"/><circle cx="177.0" cy="100.0" r="2"/><circle cx="172.7" cy="121.8" r="2"/><circle cx="160.3" cy="140.3" r="2"/><circle cx="141.8" cy="152.7" r="2"/><circle cx="120.0" cy="157.0" r="2"/><circle cx="98.2" cy="152.7" r="2"/><circle cx="79.7" cy="140.3" r="2"/><circle cx="67.3" cy="121.8" r="2"/><circle cx="63.0" cy="100.0" r="2"/><circle cx="67.3" cy="78.2" r="2"/><circle cx="79.7" cy="59.7" r="2"/><circle cx="98.2" cy="47.3" r="2"/><circle cx="120.0" cy="43.0" r="2"/><circle cx="141.8" cy="47.3" r="2"/><circle cx="160.3" cy="59.7" r="2"/><circle cx="172.7" cy="78.2" r="2"/></svg>